<?xml version="1.0" encoding="UTF-8" standalone="no"?>
<svg
   width="84.619125"
   height="25.89213"
   role="img"
   aria-label="PWA"
   version="1.1"
   id="svg14"
   sodipodi:docname="webxr.svg"
   inkscape:version="1.1.2 (0a00cf5339, 2022-02-04)"
   xmlns:inkscape="http://www.inkscape.org/namespaces/inkscape"
   xmlns:sodipodi="http://sodipodi.sourceforge.net/DTD/sodipodi-0.dtd"
   xmlns="http://www.w3.org/2000/svg"
   xmlns:svg="http://www.w3.org/2000/svg"
   xmlns:rdf="http://www.w3.org/1999/02/22-rdf-syntax-ns#"
   xmlns:cc="http://creativecommons.org/ns#"
   xmlns:dc="http://purl.org/dc/elements/1.1/">
  <defs
     id="defs18" />
  <sodipodi:namedview
     id="namedview16"
     pagecolor="#ffffff"
     bordercolor="#666666"
     borderopacity="1.0"
     inkscape:pageshadow="2"
     inkscape:pageopacity="0.0"
     inkscape:pagecheckerboard="0"
     showgrid="false"
     fit-margin-top="0"
     fit-margin-left="0"
     fit-margin-right="0"
     fit-margin-bottom="0"
     inkscape:zoom="6.7498736"
     inkscape:cx="48.000899"
     inkscape:cy="10.44464"
     inkscape:window-width="1920"
     inkscape:window-height="1016"
     inkscape:window-x="0"
     inkscape:window-y="0"
     inkscape:window-maximized="1"
     inkscape:current-layer="svg14" />
  <title
     id="title2">PWA</title>
  <rect
     width="84.619125"
     height="25.89213"
     fill="#5a0fc8"
     id="rect4"
     x="0"
     y="0"
     style="fill:#d40000;stroke-width:1.03005;shape-rendering:crispEdges" />
  <text
     xml:space="preserve"
     style="font-size:10px;line-height:0;font-family:Verdana, Geneva, 'DejaVu Sans', sans-serif;-inkscape-font-specification:'Verdana, Geneva, DejaVu Sans, sans-serif';letter-spacing:1px;fill:#ffffff"
     x="30.602715"
     y="16.840979"
     id="text20033"><tspan
       sodipodi:role="line"
       id="tspan20031"
       x="30.602715"
       y="16.840979"
       style="font-style:normal;font-variant:normal;font-weight:bold;font-stretch:normal;font-family:Verdana, Geneva, 'DejaVu Sans', sans-serif;-inkscape-font-specification:'Verdana, Geneva, DejaVu Sans, sans-serif Bold';fill:#ffffff">WEBXR</tspan></text>
  <metadata
     id="metadata845">
    <rdf:RDF>
      <cc:Work
         rdf:about="">
        <dc:title>PWA</dc:title>
      </cc:Work>
    </rdf:RDF>
  </metadata>
  <g
     id="g857"
     transform="matrix(0.02795421,0,0,0.02764444,8.2444368,5.9584032)"
     style="fill:#ffffff;stroke:#ff0000">
    <path
       d="M 131.01859,484.68078 C 123.10578,466.04041 31.541671,248.58027 31.541671,248.58027 c 0,0 -21.377684,-50.17115 55.451899,-85.81853 76.82958,-35.64738 170.36289,-80.536416 170.36289,-80.536416 V 423.01297 c 0,0 -55.36835,54.24889 -77.267,75.99572 -19.89834,19.7638 -41.12694,4.39177 -49.07087,-14.32629 z"
       fill="#ffffff"
       id="path2"
       style="fill:#ffffff;stroke:#ff0000;stroke-width:10;stroke-miterlimit:2;stroke-dasharray:none" />
    <path
       d="m 383.69924,484.68078 c 7.9128,-18.64037 99.47692,-236.10051 99.47692,-236.10051 0,0 21.37768,-50.17115 -55.4519,-85.81853 C 350.89467,127.11436 257.36137,82.225324 257.36137,82.225324 V 423.01297 c 0,0 55.36835,54.24889 77.267,75.99572 19.89833,19.7638 41.12693,4.39177 49.07087,-14.32629 z M 257.35646,82.217229 98.571169,6.1033463 c 0,0 -33.828476,-14.7309881 -25.352108,32.3790357 L 94.914568,159.07575 Z"
       fill="#ff0202"
       id="path4"
       style="fill:#ffffff;stroke:#ff0000;stroke-width:10;stroke-miterlimit:2;stroke-dasharray:none" />
    <path
       d="M 257.35646,82.217229 416.14174,6.1033463 c 0,0 33.82848,-14.7309881 25.35211,32.3790357 L 419.79834,159.07575 Z"
       fill="#ffffff"
       id="path6"
       style="fill:#ffffff;stroke:#ff0000;stroke-width:10;stroke-miterlimit:2;stroke-dasharray:none" />
  </g>
</svg>
